<svg width="48" height="48" viewBox="0 0 48 48" fill="none" xmlns="http://www.w3.org/2000/svg">
<path d="M9 38.3115H8V17.7314H9V38.3115ZM32.4932 13.5811C34.5582 13.5528 36.6566 13.9891 38.2568 14.9453C39.8726 15.9108 41 17.4258 41 19.5V38.3105C40.9998 38.3107 40.989 38.3115 40.5 38.3115L40 38.3105V19.5C40 17.8524 39.1272 16.6307 37.7432 15.8037C36.3435 14.9675 34.4417 14.5546 32.5068 14.5811C30.5728 14.6075 28.6657 15.072 27.2598 15.9248C25.8627 16.7723 25 17.9715 25 19.5V38.3105C24.9998 38.3107 24.989 38.3115 24.5 38.3115L24 38.3105V19.5C24 17.5257 25.1375 16.0427 26.7402 15.0703C28.3342 14.1033 30.4274 13.6093 32.4932 13.5811ZM9 9H8V7H9V9Z" fill="#ECD053"/>
<path d="M9 38.3115V40.3115C10.1046 40.3115 11 39.4161 11 38.3115H9ZM8 38.3115H6C6 39.4161 6.89543 40.3115 8 40.3115V38.3115ZM8 17.7314V15.7314C6.89543 15.7314 6 16.6269 6 17.7314H8ZM9 17.7314H11C11 16.6269 10.1046 15.7314 9 15.7314V17.7314ZM32.4932 13.5811L32.4658 11.5812L32.4658 11.5812L32.4932 13.5811ZM38.2568 14.9453L39.2828 13.2285L39.2827 13.2284L38.2568 14.9453ZM41 19.5L43 19.5L43 19.5L41 19.5ZM41 38.3105L41.8922 40.1005C42.571 39.7621 43 39.069 43 38.3105H41ZM40.5 38.3115L40.4961 40.3115H40.5V38.3115ZM40 38.3105H38C38 39.4136 38.8931 40.3084 39.9961 40.3105L40 38.3105ZM40 19.5L42 19.5L42 19.5L40 19.5ZM37.7432 15.8037L38.769 14.0868L38.7689 14.0868L37.7432 15.8037ZM32.5068 14.5811L32.4795 12.5812L32.4795 12.5812L32.5068 14.5811ZM27.2598 15.9248L26.2226 14.2148L26.2224 14.2148L27.2598 15.9248ZM25 19.5L23 19.5V19.5H25ZM25 38.3105L25.9089 40.0921C26.5785 39.7505 27 39.0622 27 38.3105H25ZM24.5 38.3115L24.4961 40.3115H24.5V38.3115ZM24 38.3105H22C22 39.4136 22.8931 40.3084 23.9961 40.3105L24 38.3105ZM24 19.5L22 19.5V19.5H24ZM26.7402 15.0703L25.7029 13.3604L25.7028 13.3604L26.7402 15.0703ZM9 9V11C10.1046 11 11 10.1046 11 9H9ZM8 9H6C6 10.1046 6.89543 11 8 11V9ZM8 7V5C6.89543 5 6 5.89543 6 7H8ZM9 7H11C11 5.89543 10.1046 5 9 5V7ZM9 38.3115V36.3115H8V38.3115V40.3115H9V38.3115ZM8 38.3115H10V17.7314H8H6V38.3115H8ZM8 17.7314V19.7314H9V17.7314V15.7314H8V17.7314ZM9 17.7314H7V38.3115H9H11V17.7314H9ZM32.4932 13.5811L32.5205 15.5809C34.3253 15.5562 36.0317 15.9456 37.231 16.6622L38.2568 14.9453L39.2827 13.2284C37.2814 12.0327 34.7911 11.5494 32.4658 11.5812L32.4932 13.5811ZM38.2568 14.9453L37.2309 16.6621C38.3844 17.3514 39 18.2806 39 19.5L41 19.5L43 19.5C43 16.5711 41.3607 14.4703 39.2828 13.2285L38.2568 14.9453ZM41 19.5H39V38.3105H41H43V19.5H41ZM41 38.3105L40.1078 36.5206C40.2413 36.454 40.3555 36.4159 40.4227 36.3957C40.4945 36.374 40.5545 36.3604 40.5942 36.3522C40.671 36.3362 40.7323 36.3283 40.7606 36.3249C40.8194 36.3178 40.8656 36.315 40.8789 36.3142C40.9129 36.3122 40.9394 36.3115 40.9438 36.3114C40.9531 36.3111 40.9601 36.311 40.9628 36.311C40.966 36.3109 40.968 36.3109 40.9682 36.3109C40.9685 36.3109 40.9659 36.3109 40.9585 36.3109C40.9514 36.311 40.9409 36.311 40.9261 36.3111C40.866 36.3113 40.744 36.3115 40.5 36.3115V38.3115V40.3115C40.745 40.3115 40.8729 40.3113 40.9405 40.3111C40.9733 40.3109 40.9962 40.3108 41.0129 40.3106C41.0193 40.3106 41.035 40.3104 41.0532 40.3099C41.0589 40.3097 41.0861 40.309 41.1205 40.3069C41.134 40.3061 41.1803 40.3033 41.2393 40.2962C41.2676 40.2928 41.329 40.2849 41.4058 40.2689C41.4511 40.2596 41.6557 40.2184 41.8922 40.1005L41 38.3105ZM40.5 38.3115L40.5039 36.3115L40.0039 36.3106L40 38.3105L39.9961 40.3105L40.4961 40.3115L40.5 38.3115ZM40 38.3105H42V19.5H40H38V38.3105H40ZM40 19.5L42 19.5C42 17.0004 40.6182 15.1918 38.769 14.0868L37.7432 15.8037L36.7173 17.5206C37.6363 18.0697 38 18.7045 38 19.5L40 19.5ZM37.7432 15.8037L38.7689 14.0868C36.9685 13.0111 34.675 12.5512 32.4795 12.5812L32.5068 14.5811L32.5342 16.5809C34.2084 16.558 35.7184 16.9238 36.7174 17.5206L37.7432 15.8037ZM32.5068 14.5811L32.4795 12.5812C30.2822 12.6113 28.0042 13.1341 26.2226 14.2148L27.2598 15.9248L28.297 17.6348C29.3273 17.0099 30.8633 16.6037 32.5342 16.5809L32.5068 14.5811ZM27.2598 15.9248L26.2224 14.2148C24.4116 15.3134 23 17.0813 23 19.5L25 19.5L27 19.5C27 18.8617 27.3138 18.2313 28.2971 17.6348L27.2598 15.9248ZM25 19.5H23V38.3105H25H27V19.5H25ZM25 38.3105L24.0911 36.529C24.2266 36.4599 24.3428 36.4202 24.4116 36.3991C24.4849 36.3765 24.5463 36.3623 24.5868 36.3537C24.6654 36.3371 24.7281 36.3289 24.7569 36.3254C24.817 36.318 24.8642 36.3151 24.8776 36.3143C24.9121 36.3122 24.9391 36.3115 24.9435 36.3114C24.9529 36.3111 24.96 36.311 24.9627 36.311C24.9659 36.3109 24.9679 36.3109 24.9681 36.3109C24.9685 36.3109 24.9659 36.3109 24.9585 36.3109C24.9514 36.311 24.9409 36.311 24.9261 36.3111C24.866 36.3113 24.744 36.3115 24.5 36.3115V38.3115V40.3115C24.7449 40.3115 24.8728 40.3113 24.9404 40.3111C24.9733 40.311 24.9962 40.3108 25.0129 40.3106C25.0193 40.3106 25.0351 40.3104 25.0535 40.3099C25.0592 40.3097 25.0869 40.309 25.1218 40.3068C25.1355 40.306 25.1828 40.3031 25.2429 40.2957C25.2718 40.2922 25.3346 40.284 25.4131 40.2674C25.4598 40.2576 25.6686 40.2147 25.9089 40.0921L25 38.3105ZM24.5 38.3115L24.5039 36.3115L24.0039 36.3106L24 38.3105L23.9961 40.3105L24.4961 40.3115L24.5 38.3115ZM24 38.3105H26V19.5H24H22V38.3105H24ZM24 19.5L26 19.5C26 18.4194 26.5848 17.5039 27.7777 16.7802L26.7402 15.0703L25.7028 13.3604C23.6903 14.5815 22 16.632 22 19.5L24 19.5ZM26.7402 15.0703L27.7776 16.7803C28.9958 16.0412 30.718 15.6055 32.5205 15.5809L32.4932 13.5811L32.4658 11.5812C30.1369 11.6131 27.6726 12.1654 25.7029 13.3604L26.7402 15.0703ZM9 9V7H8V9V11H9V9ZM8 9H10V7H8H6V9H8ZM8 7V9H9V7V5H8V7ZM9 7H7V9H9H11V7H9Z" fill="#ECD053"/>
</svg>
